<mxfile host="app.diagrams.net" modified="2023-10-03T05:00:11.938Z" agent="Mozilla/5.0 (Windows NT 10.0; Win64; x64) AppleWebKit/537.36 (KHTML, like Gecko) Chrome/116.0.0.0 Safari/537.36" etag="O_kaqZKpJ44ATybgtwi6" version="21.1.1" type="device" pages="2">
  <diagram name="FullAdder graph" id="j3QZTfdIPQ5t1C-EMa5B">
    <mxGraphModel dx="1723" dy="720" grid="1" gridSize="10" guides="1" tooltips="1" connect="1" arrows="1" fold="1" page="0" pageScale="1" pageWidth="850" pageHeight="1100" math="0" shadow="0">
      <root>
        <mxCell id="0" />
        <mxCell id="1" parent="0" />
        <mxCell id="zfGoBwkNv_Oa0oObjRGO-2" value="FullAdder Graph" style="text;strokeColor=none;fillColor=none;html=1;fontSize=24;fontStyle=1;verticalAlign=middle;align=center;" vertex="1" parent="1">
          <mxGeometry x="351" y="10" width="100" height="40" as="geometry" />
        </mxCell>
        <mxCell id="zfGoBwkNv_Oa0oObjRGO-5" value="" style="edgeStyle=orthogonalEdgeStyle;rounded=0;orthogonalLoop=1;jettySize=auto;html=1;" edge="1" parent="1" source="zfGoBwkNv_Oa0oObjRGO-3" target="zfGoBwkNv_Oa0oObjRGO-4">
          <mxGeometry relative="1" as="geometry" />
        </mxCell>
        <mxCell id="zfGoBwkNv_Oa0oObjRGO-3" value="Port B" style="ellipse;whiteSpace=wrap;html=1;aspect=fixed;" vertex="1" parent="1">
          <mxGeometry x="30" y="120" width="70" height="70" as="geometry" />
        </mxCell>
        <mxCell id="zfGoBwkNv_Oa0oObjRGO-7" value="" style="edgeStyle=orthogonalEdgeStyle;rounded=0;orthogonalLoop=1;jettySize=auto;html=1;" edge="1" parent="1" source="zfGoBwkNv_Oa0oObjRGO-4" target="zfGoBwkNv_Oa0oObjRGO-6">
          <mxGeometry relative="1" as="geometry" />
        </mxCell>
        <mxCell id="zfGoBwkNv_Oa0oObjRGO-4" value="Port derived net B" style="ellipse;whiteSpace=wrap;html=1;aspect=fixed;" vertex="1" parent="1">
          <mxGeometry x="160" y="120" width="70" height="70" as="geometry" />
        </mxCell>
        <mxCell id="zfGoBwkNv_Oa0oObjRGO-9" value="" style="edgeStyle=orthogonalEdgeStyle;rounded=0;orthogonalLoop=1;jettySize=auto;html=1;" edge="1" parent="1" source="zfGoBwkNv_Oa0oObjRGO-6" target="zfGoBwkNv_Oa0oObjRGO-8">
          <mxGeometry relative="1" as="geometry" />
        </mxCell>
        <mxCell id="zfGoBwkNv_Oa0oObjRGO-6" value="Instance Pin I" style="ellipse;whiteSpace=wrap;html=1;aspect=fixed;" vertex="1" parent="1">
          <mxGeometry x="310" y="120" width="70" height="70" as="geometry" />
        </mxCell>
        <mxCell id="zfGoBwkNv_Oa0oObjRGO-11" value="" style="edgeStyle=orthogonalEdgeStyle;rounded=0;orthogonalLoop=1;jettySize=auto;html=1;" edge="1" parent="1" source="zfGoBwkNv_Oa0oObjRGO-8" target="zfGoBwkNv_Oa0oObjRGO-10">
          <mxGeometry relative="1" as="geometry" />
        </mxCell>
        <mxCell id="zfGoBwkNv_Oa0oObjRGO-8" value="Instance CLK_B1" style="ellipse;whiteSpace=wrap;html=1;aspect=fixed;" vertex="1" parent="1">
          <mxGeometry x="460" y="120" width="70" height="70" as="geometry" />
        </mxCell>
        <mxCell id="zfGoBwkNv_Oa0oObjRGO-15" value="" style="edgeStyle=orthogonalEdgeStyle;rounded=0;orthogonalLoop=1;jettySize=auto;html=1;" edge="1" parent="1" source="zfGoBwkNv_Oa0oObjRGO-10" target="zfGoBwkNv_Oa0oObjRGO-14">
          <mxGeometry relative="1" as="geometry" />
        </mxCell>
        <mxCell id="zfGoBwkNv_Oa0oObjRGO-10" value="Instance Pin Z" style="ellipse;whiteSpace=wrap;html=1;aspect=fixed;" vertex="1" parent="1">
          <mxGeometry x="580" y="120" width="70" height="70" as="geometry" />
        </mxCell>
        <mxCell id="zfGoBwkNv_Oa0oObjRGO-17" value="" style="edgeStyle=orthogonalEdgeStyle;rounded=0;orthogonalLoop=1;jettySize=auto;html=1;" edge="1" parent="1" source="zfGoBwkNv_Oa0oObjRGO-14" target="zfGoBwkNv_Oa0oObjRGO-16">
          <mxGeometry relative="1" as="geometry" />
        </mxCell>
        <mxCell id="zfGoBwkNv_Oa0oObjRGO-14" value="Net n1" style="ellipse;whiteSpace=wrap;html=1;aspect=fixed;" vertex="1" parent="1">
          <mxGeometry x="670" y="270" width="70" height="70" as="geometry" />
        </mxCell>
        <mxCell id="zfGoBwkNv_Oa0oObjRGO-19" value="" style="edgeStyle=orthogonalEdgeStyle;rounded=0;orthogonalLoop=1;jettySize=auto;html=1;" edge="1" parent="1" source="zfGoBwkNv_Oa0oObjRGO-16" target="zfGoBwkNv_Oa0oObjRGO-18">
          <mxGeometry relative="1" as="geometry" />
        </mxCell>
        <mxCell id="zfGoBwkNv_Oa0oObjRGO-16" value="Instance Pin A2" style="ellipse;whiteSpace=wrap;html=1;aspect=fixed;" vertex="1" parent="1">
          <mxGeometry x="520" y="270" width="70" height="70" as="geometry" />
        </mxCell>
        <mxCell id="zfGoBwkNv_Oa0oObjRGO-32" value="" style="edgeStyle=orthogonalEdgeStyle;rounded=0;orthogonalLoop=1;jettySize=auto;html=1;" edge="1" parent="1" source="zfGoBwkNv_Oa0oObjRGO-18" target="zfGoBwkNv_Oa0oObjRGO-31">
          <mxGeometry relative="1" as="geometry" />
        </mxCell>
        <mxCell id="zfGoBwkNv_Oa0oObjRGO-18" value="Instance G1" style="ellipse;whiteSpace=wrap;html=1;aspect=fixed;" vertex="1" parent="1">
          <mxGeometry x="400" y="270" width="70" height="70" as="geometry" />
        </mxCell>
        <mxCell id="zfGoBwkNv_Oa0oObjRGO-23" value="" style="edgeStyle=orthogonalEdgeStyle;rounded=0;orthogonalLoop=1;jettySize=auto;html=1;" edge="1" parent="1" source="zfGoBwkNv_Oa0oObjRGO-20" target="zfGoBwkNv_Oa0oObjRGO-18">
          <mxGeometry relative="1" as="geometry" />
        </mxCell>
        <mxCell id="zfGoBwkNv_Oa0oObjRGO-20" value="Instance Pin A1" style="ellipse;whiteSpace=wrap;html=1;aspect=fixed;" vertex="1" parent="1">
          <mxGeometry x="281" y="270" width="70" height="70" as="geometry" />
        </mxCell>
        <mxCell id="zfGoBwkNv_Oa0oObjRGO-26" value="" style="edgeStyle=orthogonalEdgeStyle;rounded=0;orthogonalLoop=1;jettySize=auto;html=1;" edge="1" parent="1" source="zfGoBwkNv_Oa0oObjRGO-24" target="zfGoBwkNv_Oa0oObjRGO-20">
          <mxGeometry relative="1" as="geometry" />
        </mxCell>
        <mxCell id="zfGoBwkNv_Oa0oObjRGO-24" value="Port derived net A" style="ellipse;whiteSpace=wrap;html=1;aspect=fixed;" vertex="1" parent="1">
          <mxGeometry x="160" y="270" width="70" height="70" as="geometry" />
        </mxCell>
        <mxCell id="zfGoBwkNv_Oa0oObjRGO-29" value="" style="edgeStyle=orthogonalEdgeStyle;rounded=0;orthogonalLoop=1;jettySize=auto;html=1;" edge="1" parent="1" source="zfGoBwkNv_Oa0oObjRGO-27" target="zfGoBwkNv_Oa0oObjRGO-24">
          <mxGeometry relative="1" as="geometry" />
        </mxCell>
        <mxCell id="zfGoBwkNv_Oa0oObjRGO-27" value="Port A" style="ellipse;whiteSpace=wrap;html=1;aspect=fixed;" vertex="1" parent="1">
          <mxGeometry x="20" y="270" width="70" height="70" as="geometry" />
        </mxCell>
        <mxCell id="zfGoBwkNv_Oa0oObjRGO-34" value="" style="edgeStyle=orthogonalEdgeStyle;rounded=0;orthogonalLoop=1;jettySize=auto;html=1;" edge="1" parent="1" source="zfGoBwkNv_Oa0oObjRGO-31" target="zfGoBwkNv_Oa0oObjRGO-33">
          <mxGeometry relative="1" as="geometry" />
        </mxCell>
        <mxCell id="zfGoBwkNv_Oa0oObjRGO-31" value="Instance Pin Z" style="ellipse;whiteSpace=wrap;html=1;aspect=fixed;" vertex="1" parent="1">
          <mxGeometry x="400" y="420" width="70" height="70" as="geometry" />
        </mxCell>
        <mxCell id="zfGoBwkNv_Oa0oObjRGO-36" value="" style="edgeStyle=orthogonalEdgeStyle;rounded=0;orthogonalLoop=1;jettySize=auto;html=1;" edge="1" parent="1" source="zfGoBwkNv_Oa0oObjRGO-33" target="zfGoBwkNv_Oa0oObjRGO-35">
          <mxGeometry relative="1" as="geometry" />
        </mxCell>
        <mxCell id="zfGoBwkNv_Oa0oObjRGO-33" value="Net n2" style="ellipse;whiteSpace=wrap;html=1;aspect=fixed;" vertex="1" parent="1">
          <mxGeometry x="250" y="420" width="70" height="70" as="geometry" />
        </mxCell>
        <mxCell id="zfGoBwkNv_Oa0oObjRGO-38" value="" style="edgeStyle=orthogonalEdgeStyle;rounded=0;orthogonalLoop=1;jettySize=auto;html=1;" edge="1" parent="1" source="zfGoBwkNv_Oa0oObjRGO-35" target="zfGoBwkNv_Oa0oObjRGO-37">
          <mxGeometry relative="1" as="geometry" />
        </mxCell>
        <mxCell id="zfGoBwkNv_Oa0oObjRGO-35" value="Instance Pin A2" style="ellipse;whiteSpace=wrap;html=1;aspect=fixed;" vertex="1" parent="1">
          <mxGeometry x="100" y="420" width="70" height="70" as="geometry" />
        </mxCell>
        <mxCell id="zfGoBwkNv_Oa0oObjRGO-75" value="" style="edgeStyle=orthogonalEdgeStyle;rounded=0;orthogonalLoop=1;jettySize=auto;html=1;" edge="1" parent="1" source="zfGoBwkNv_Oa0oObjRGO-37" target="zfGoBwkNv_Oa0oObjRGO-39">
          <mxGeometry relative="1" as="geometry" />
        </mxCell>
        <mxCell id="zfGoBwkNv_Oa0oObjRGO-37" value="Instance G2" style="ellipse;whiteSpace=wrap;html=1;aspect=fixed;" vertex="1" parent="1">
          <mxGeometry x="100" y="570" width="70" height="70" as="geometry" />
        </mxCell>
        <mxCell id="zfGoBwkNv_Oa0oObjRGO-52" value="" style="edgeStyle=orthogonalEdgeStyle;rounded=0;orthogonalLoop=1;jettySize=auto;html=1;" edge="1" parent="1" source="zfGoBwkNv_Oa0oObjRGO-39" target="zfGoBwkNv_Oa0oObjRGO-51">
          <mxGeometry relative="1" as="geometry" />
        </mxCell>
        <mxCell id="zfGoBwkNv_Oa0oObjRGO-39" value="Instance Pin Z" style="ellipse;whiteSpace=wrap;html=1;aspect=fixed;" vertex="1" parent="1">
          <mxGeometry x="250" y="570" width="70" height="70" as="geometry" />
        </mxCell>
        <mxCell id="zfGoBwkNv_Oa0oObjRGO-43" value="" style="edgeStyle=orthogonalEdgeStyle;rounded=0;orthogonalLoop=1;jettySize=auto;html=1;" edge="1" parent="1" source="zfGoBwkNv_Oa0oObjRGO-41" target="zfGoBwkNv_Oa0oObjRGO-37">
          <mxGeometry relative="1" as="geometry" />
        </mxCell>
        <mxCell id="zfGoBwkNv_Oa0oObjRGO-41" value="Instance Pin A1" style="ellipse;whiteSpace=wrap;html=1;aspect=fixed;" vertex="1" parent="1">
          <mxGeometry x="-50" y="570" width="70" height="70" as="geometry" />
        </mxCell>
        <mxCell id="zfGoBwkNv_Oa0oObjRGO-47" value="" style="edgeStyle=orthogonalEdgeStyle;rounded=0;orthogonalLoop=1;jettySize=auto;html=1;" edge="1" parent="1" source="zfGoBwkNv_Oa0oObjRGO-45" target="zfGoBwkNv_Oa0oObjRGO-41">
          <mxGeometry relative="1" as="geometry" />
        </mxCell>
        <mxCell id="zfGoBwkNv_Oa0oObjRGO-45" value="Port derived net CIN" style="ellipse;whiteSpace=wrap;html=1;aspect=fixed;" vertex="1" parent="1">
          <mxGeometry x="-50" y="420" width="70" height="70" as="geometry" />
        </mxCell>
        <mxCell id="zfGoBwkNv_Oa0oObjRGO-50" value="" style="edgeStyle=orthogonalEdgeStyle;rounded=0;orthogonalLoop=1;jettySize=auto;html=1;" edge="1" parent="1" source="zfGoBwkNv_Oa0oObjRGO-48" target="zfGoBwkNv_Oa0oObjRGO-45">
          <mxGeometry relative="1" as="geometry" />
        </mxCell>
        <mxCell id="zfGoBwkNv_Oa0oObjRGO-64" value="" style="edgeStyle=orthogonalEdgeStyle;rounded=0;orthogonalLoop=1;jettySize=auto;html=1;" edge="1" parent="1" source="zfGoBwkNv_Oa0oObjRGO-48" target="zfGoBwkNv_Oa0oObjRGO-63">
          <mxGeometry relative="1" as="geometry" />
        </mxCell>
        <mxCell id="zfGoBwkNv_Oa0oObjRGO-48" value="Port CIN" style="ellipse;whiteSpace=wrap;html=1;aspect=fixed;" vertex="1" parent="1">
          <mxGeometry x="-200" y="420" width="70" height="70" as="geometry" />
        </mxCell>
        <mxCell id="zfGoBwkNv_Oa0oObjRGO-54" value="" style="edgeStyle=orthogonalEdgeStyle;rounded=0;orthogonalLoop=1;jettySize=auto;html=1;" edge="1" parent="1" source="zfGoBwkNv_Oa0oObjRGO-51" target="zfGoBwkNv_Oa0oObjRGO-53">
          <mxGeometry relative="1" as="geometry" />
        </mxCell>
        <mxCell id="zfGoBwkNv_Oa0oObjRGO-51" value="Net n8" style="ellipse;whiteSpace=wrap;html=1;aspect=fixed;" vertex="1" parent="1">
          <mxGeometry x="400" y="570" width="70" height="70" as="geometry" />
        </mxCell>
        <mxCell id="zfGoBwkNv_Oa0oObjRGO-56" value="" style="edgeStyle=orthogonalEdgeStyle;rounded=0;orthogonalLoop=1;jettySize=auto;html=1;" edge="1" parent="1" source="zfGoBwkNv_Oa0oObjRGO-53" target="zfGoBwkNv_Oa0oObjRGO-55">
          <mxGeometry relative="1" as="geometry" />
        </mxCell>
        <mxCell id="zfGoBwkNv_Oa0oObjRGO-53" value="Instance Pin I" style="ellipse;whiteSpace=wrap;html=1;aspect=fixed;" vertex="1" parent="1">
          <mxGeometry x="550" y="570" width="70" height="70" as="geometry" />
        </mxCell>
        <mxCell id="zfGoBwkNv_Oa0oObjRGO-58" value="" style="edgeStyle=orthogonalEdgeStyle;rounded=0;orthogonalLoop=1;jettySize=auto;html=1;" edge="1" parent="1" source="zfGoBwkNv_Oa0oObjRGO-55" target="zfGoBwkNv_Oa0oObjRGO-57">
          <mxGeometry relative="1" as="geometry" />
        </mxCell>
        <mxCell id="zfGoBwkNv_Oa0oObjRGO-55" value="Instance CLK_B2" style="ellipse;whiteSpace=wrap;html=1;aspect=fixed;" vertex="1" parent="1">
          <mxGeometry x="550" y="720" width="70" height="70" as="geometry" />
        </mxCell>
        <mxCell id="zfGoBwkNv_Oa0oObjRGO-60" value="" style="edgeStyle=orthogonalEdgeStyle;rounded=0;orthogonalLoop=1;jettySize=auto;html=1;" edge="1" parent="1" source="zfGoBwkNv_Oa0oObjRGO-57" target="zfGoBwkNv_Oa0oObjRGO-59">
          <mxGeometry relative="1" as="geometry" />
        </mxCell>
        <mxCell id="zfGoBwkNv_Oa0oObjRGO-57" value="Instance Pin&lt;br&gt;Z" style="ellipse;whiteSpace=wrap;html=1;aspect=fixed;" vertex="1" parent="1">
          <mxGeometry x="400" y="720" width="70" height="70" as="geometry" />
        </mxCell>
        <mxCell id="zfGoBwkNv_Oa0oObjRGO-62" value="" style="edgeStyle=orthogonalEdgeStyle;rounded=0;orthogonalLoop=1;jettySize=auto;html=1;" edge="1" parent="1" source="zfGoBwkNv_Oa0oObjRGO-59" target="zfGoBwkNv_Oa0oObjRGO-61">
          <mxGeometry relative="1" as="geometry" />
        </mxCell>
        <mxCell id="zfGoBwkNv_Oa0oObjRGO-59" value="Port derived net Z" style="ellipse;whiteSpace=wrap;html=1;aspect=fixed;" vertex="1" parent="1">
          <mxGeometry x="400" y="870" width="70" height="70" as="geometry" />
        </mxCell>
        <mxCell id="zfGoBwkNv_Oa0oObjRGO-61" value="Port SUM" style="ellipse;whiteSpace=wrap;html=1;aspect=fixed;" vertex="1" parent="1">
          <mxGeometry x="550" y="870" width="70" height="70" as="geometry" />
        </mxCell>
        <mxCell id="zfGoBwkNv_Oa0oObjRGO-66" value="" style="edgeStyle=orthogonalEdgeStyle;rounded=0;orthogonalLoop=1;jettySize=auto;html=1;" edge="1" parent="1" source="zfGoBwkNv_Oa0oObjRGO-63" target="zfGoBwkNv_Oa0oObjRGO-65">
          <mxGeometry relative="1" as="geometry" />
        </mxCell>
        <mxCell id="zfGoBwkNv_Oa0oObjRGO-63" value="Port derived Net CIN" style="ellipse;whiteSpace=wrap;html=1;aspect=fixed;" vertex="1" parent="1">
          <mxGeometry x="-200" y="570" width="70" height="70" as="geometry" />
        </mxCell>
        <mxCell id="zfGoBwkNv_Oa0oObjRGO-68" value="" style="edgeStyle=orthogonalEdgeStyle;rounded=0;orthogonalLoop=1;jettySize=auto;html=1;" edge="1" parent="1" source="zfGoBwkNv_Oa0oObjRGO-65" target="zfGoBwkNv_Oa0oObjRGO-67">
          <mxGeometry relative="1" as="geometry" />
        </mxCell>
        <mxCell id="zfGoBwkNv_Oa0oObjRGO-65" value="Instance Pin I" style="ellipse;whiteSpace=wrap;html=1;aspect=fixed;" vertex="1" parent="1">
          <mxGeometry x="-200" y="720" width="70" height="70" as="geometry" />
        </mxCell>
        <mxCell id="zfGoBwkNv_Oa0oObjRGO-70" value="" style="edgeStyle=orthogonalEdgeStyle;rounded=0;orthogonalLoop=1;jettySize=auto;html=1;" edge="1" parent="1" source="zfGoBwkNv_Oa0oObjRGO-67" target="zfGoBwkNv_Oa0oObjRGO-69">
          <mxGeometry relative="1" as="geometry" />
        </mxCell>
        <mxCell id="zfGoBwkNv_Oa0oObjRGO-67" value="Instance CLK_B3" style="ellipse;whiteSpace=wrap;html=1;aspect=fixed;" vertex="1" parent="1">
          <mxGeometry x="-50" y="720" width="70" height="70" as="geometry" />
        </mxCell>
        <mxCell id="zfGoBwkNv_Oa0oObjRGO-72" value="" style="edgeStyle=orthogonalEdgeStyle;rounded=0;orthogonalLoop=1;jettySize=auto;html=1;" edge="1" parent="1" source="zfGoBwkNv_Oa0oObjRGO-69" target="zfGoBwkNv_Oa0oObjRGO-71">
          <mxGeometry relative="1" as="geometry" />
        </mxCell>
        <mxCell id="zfGoBwkNv_Oa0oObjRGO-69" value="Instance Pin Z" style="ellipse;whiteSpace=wrap;html=1;aspect=fixed;" vertex="1" parent="1">
          <mxGeometry x="100" y="720" width="70" height="70" as="geometry" />
        </mxCell>
        <mxCell id="zfGoBwkNv_Oa0oObjRGO-74" value="" style="edgeStyle=orthogonalEdgeStyle;rounded=0;orthogonalLoop=1;jettySize=auto;html=1;" edge="1" parent="1" source="zfGoBwkNv_Oa0oObjRGO-71" target="zfGoBwkNv_Oa0oObjRGO-73">
          <mxGeometry relative="1" as="geometry" />
        </mxCell>
        <mxCell id="zfGoBwkNv_Oa0oObjRGO-71" value="Port derived Net Z" style="ellipse;whiteSpace=wrap;html=1;aspect=fixed;" vertex="1" parent="1">
          <mxGeometry x="100" y="870" width="70" height="70" as="geometry" />
        </mxCell>
        <mxCell id="zfGoBwkNv_Oa0oObjRGO-73" value="Port COUT" style="ellipse;whiteSpace=wrap;html=1;aspect=fixed;" vertex="1" parent="1">
          <mxGeometry x="250" y="870" width="70" height="70" as="geometry" />
        </mxCell>
      </root>
    </mxGraphModel>
  </diagram>
  <diagram id="m5zaFltQvjvD2_ZrVz8c" name="FourBit Adder graph">
    <mxGraphModel dx="794" dy="432" grid="1" gridSize="10" guides="1" tooltips="1" connect="1" arrows="1" fold="1" page="0" pageScale="1" pageWidth="850" pageHeight="1100" math="0" shadow="0">
      <root>
        <mxCell id="0" />
        <mxCell id="1" parent="0" />
        <mxCell id="y5RjK0eUuqib5HlGzGii-1" value="" style="ellipse;whiteSpace=wrap;html=1;aspect=fixed;" vertex="1" parent="1">
          <mxGeometry x="40" y="160" width="80" height="80" as="geometry" />
        </mxCell>
        <mxCell id="y5RjK0eUuqib5HlGzGii-2" value="Fourbit Adder Graph" style="text;strokeColor=none;fillColor=none;html=1;fontSize=24;fontStyle=1;verticalAlign=middle;align=center;" vertex="1" parent="1">
          <mxGeometry x="130" width="100" height="40" as="geometry" />
        </mxCell>
      </root>
    </mxGraphModel>
  </diagram>
</mxfile>
